<svg xmlns="http://www.w3.org/2000/svg" xmlns:xlink="http://www.w3.org/1999/xlink" version="1.1" x="0px" y="0px" viewBox="0 0 100 125" style="enable-background:new 0 0 100 100;" xml:space="preserve"><g><path d="M93.034,18.219c-0.124-0.258-0.225-0.385-0.33-0.544l-0.079-0.117l-0.02-0.029l-0.049-0.068l-0.019-0.022l-0.079-0.087   c-0.107-0.113-0.214-0.234-0.339-0.314c-1.022-0.711-1.98-0.627-2.805-0.592c-1.665,0.164-3.139,0.65-4.588,1.178   c-1.447,0.542-2.83,1.151-4.218,1.847c-0.024,0.012-0.051,0.027-0.074,0.042c-0.23,0.151-0.458,0.304-0.687,0.455   c-0.02,0.003-0.039-0.003-0.059,0.002l-9.011,2.057c-1.359-0.824-6.274-3.621-11.832-4.602c-6.032-1.065-14.442-1.076-15.466-1.076   c-0.429-0.789-0.874-1.573-1.359-2.349c-0.327-0.491-0.633-0.984-1.023-1.468c-0.378-0.513-0.733-0.894-1.11-1.337   c-0.756-0.868-1.524-1.703-2.329-2.524c-0.402-0.409-0.811-0.813-1.234-1.208c-0.43-0.401-0.836-0.772-1.339-1.179   c-0.051-0.041-0.111-0.081-0.172-0.111l-0.006-0.003C34.31,5.92,33.87,5.74,33.381,5.562c-0.483-0.171-0.976-0.325-1.506-0.428   c-0.53-0.1-1.09-0.164-1.707-0.119c-0.309,0.022-0.635,0.089-0.966,0.194c-0.167,0.065-0.335,0.143-0.498,0.222   c-0.043,0.024,0.01-0.012-0.112,0.062l-0.036,0.024l-0.073,0.048L28.338,5.66c-0.503,0.354-0.912,0.748-1.252,1.118   c-0.347,0.383-0.669,0.774-0.962,1.177c-0.592,0.804-1.111,1.638-1.567,2.526c-0.23,0.443-0.441,0.9-0.626,1.395   c-0.096,0.255-0.173,0.485-0.255,0.815l-0.073,0.343l-0.064,0.409c-0.077,0.53-0.118,0.985-0.161,1.47l-0.099,1.42   c-0.107,1.865-0.163,3.71-0.195,5.57c-0.124,0.984-0.249,1.967-0.367,2.952c-0.497,1.274-1.88,4.846-3.68,9.748   c-1.129,3.097-2.43,6.706-3.625,10.687c-0.298,0.997-0.581,2.021-0.817,3.109c-0.107,0.611-0.188,1.047-0.246,1.638   c-0.057,0.566-0.116,1.139-0.138,1.681c-0.127,2.201-0.121,4.405-0.104,6.603c0.021,2.187,0.042,4.375,0.062,6.528   c-0.003,1.069-0.009,2.131-0.063,3.159c-0.044,1.012-0.129,2.084-0.353,2.839c-0.285,0.847-0.776,1.713-1.247,2.551   c-0.481,0.837-0.987,1.649-1.485,2.445c-0.971,1.595-2.03,3.115-2.617,4.796c-0.579,1.671-0.884,3.149-1.121,4.506   c-0.21,1.351-0.319,2.541-0.354,3.532c-0.02,0.993,0.023,1.781,0.11,2.332c0.03,0.271,0.092,0.487,0.121,0.629   c0.033,0.143,0.05,0.216,0.05,0.216c0.066,0.287,0.337,0.486,0.637,0.454c0.324-0.035,0.558-0.325,0.523-0.649l-0.007-0.067   c0,0-0.007-0.061-0.019-0.18c-0.01-0.12-0.041-0.288-0.042-0.531c-0.035-0.47-0.013-1.193,0.084-2.112   c0.085-0.922,0.252-2.047,0.525-3.321c0.262-1.262,0.612-2.738,1.151-4.159c0.525-1.425,1.506-2.87,2.506-4.471   c0.505-0.796,1.027-1.622,1.537-2.496c0.498-0.879,1.029-1.776,1.413-2.87c0.361-1.216,0.402-2.252,0.47-3.344   c0.063-1.083,0.075-2.161,0.085-3.248c-0.007-2.159-0.015-4.353-0.022-6.547c-0.003-2.182,0.006-4.362,0.141-6.467   c0.025-0.536,0.082-1.03,0.132-1.528c0.043-0.473,0.157-1.085,0.234-1.513c0.219-0.976,0.496-1.965,0.792-2.933   c1.192-3.881,2.519-7.48,3.613-10.566c0.603-1.663,1.156-3.168,1.646-4.488c0.065,0.275,0.118,0.559,0.194,0.826   c0.3,1.051,0.646,2.065,1.054,3.073c0.101,0.251,0.366,0.407,0.644,0.361c0.321-0.054,0.538-0.358,0.485-0.679l-0.001-0.008   c-0.173-1.036-0.354-2.082-0.506-3.108c-0.075-0.513-0.142-1.024-0.187-1.513c-0.021-0.226-0.034-0.522-0.024-0.65l-0.001-0.103   l0.027-0.198l0.05-0.318c0.354-2.12,0.631-4.258,0.915-6.393l0.006-0.079l0.001-0.026c0.045-1.841,0.115-3.699,0.234-5.529   l0.106-1.365c0.042-0.442,0.091-0.914,0.151-1.305l0.042-0.281l0.075-0.34c0.033-0.12,0.097-0.335,0.17-0.513   c0.143-0.375,0.324-0.765,0.526-1.146c0.4-0.766,0.873-1.514,1.39-2.205c0.256-0.348,0.531-0.674,0.811-0.979   c0.291-0.312,0.567-0.557,0.821-0.743c0.244-0.17,0.244-0.14,0.363-0.203c0.117-0.029,0.244-0.061,0.402-0.071   c0.313-0.021,0.686,0.016,1.068,0.092c0.385,0.073,0.784,0.194,1.179,0.332c0.354,0.125,0.732,0.283,1.05,0.436   c0.35,0.285,0.74,0.631,1.101,0.966c0.397,0.368,0.787,0.75,1.173,1.138c0.768,0.775,1.521,1.586,2.24,2.404   c0.351,0.408,0.759,0.851,1.043,1.243c0.318,0.386,0.606,0.845,0.903,1.285c0.574,0.91,1.119,1.86,1.636,2.833   c1.049,1.938,2.023,3.938,2.959,5.955c0.935,2.018,1.836,4.063,2.689,6.113l0.003,0.006c0.209,0.501,0.782,0.745,1.29,0.545   c0.514-0.203,0.766-0.784,0.563-1.297c-0.83-2.103-1.697-4.177-2.608-6.242c-0.709-1.603-1.455-3.193-2.237-4.773   c2.609,0.029,9.248,0.182,14.093,1.037c6.001,1.059,11.406,4.505,11.461,4.54c0.162,0.104,0.351,0.159,0.541,0.159   c0.074,0,0.149-0.008,0.223-0.025l4.564-1.042c-0.787,0.565-1.571,1.139-2.345,1.733l-0.906,0.718   c-0.3,0.258-0.591,0.486-0.897,0.769c-0.314,0.282-0.591,0.559-0.841,0.83c-0.325,0.347-0.529,0.66-0.76,0.984   c-0.874,1.281-1.621,2.6-2.29,3.98c-0.081,0.172-0.042,0.387,0.11,0.515c0.181,0.152,0.451,0.128,0.603-0.053   c0.984-1.153,1.909-2.357,2.824-3.515c0.226-0.279,0.473-0.576,0.669-0.776c0.272-0.277,0.54-0.524,0.798-0.738   c0.252-0.229,0.557-0.466,0.833-0.699l0.878-0.683c1.915-1.442,3.925-2.798,5.949-4.12l0.22-0.05   c0.3-0.069,0.526-0.272,0.656-0.526c0.185-0.119,0.368-0.245,0.553-0.364c1.29-0.631,2.65-1.215,4.007-1.707   c1.365-0.489,2.781-0.917,4.109-1.029c0.642-0.056,1.307,0.033,1.52,0.232c0.039,0.016,0.046,0.048,0.071,0.068l0.018,0.015l0,0   l0.073,0.11c0.102,0.154,0.226,0.33,0.247,0.419c0.099,0.19,0.205,0.498,0.246,0.771c0.109,0.563,0.037,1.185-0.134,1.794   c-0.091,0.304-0.206,0.607-0.346,0.892l-0.106,0.207c-0.039,0.069-0.052,0.091-0.114,0.187l-0.304,0.473l-4.852,7.579l-1.232,1.951   c-0.241,0.436-0.401,0.898-0.482,1.382c-0.04,0.239-0.061,0.49-0.06,0.726l-0.001,0.562c0.001,0.801,0.019,1.39-0.143,1.999   c-0.13,0.557-0.468,1.276-0.73,1.977l-0.827,2.092c-0.063,0.165-0.144,0.353-0.217,0.562c-0.091,0.273-0.142,0.507-0.172,0.771   c-0.064,0.501,0.002,1.07,0.134,1.503c0.397,1.419,0.731,2.852,1.01,4.299c0.556,2.891,0.898,5.824,0.915,8.739   c0.008,0.365-0.003,0.728-0.014,1.091l-0.013,0.492l-0.055,0.56c-0.046,0.783-0.199,1.422-0.329,2.078   c-0.347,1.355-0.868,2.685-1.526,3.951c-0.655,1.27-1.465,2.47-2.354,3.608c-0.883,1.128-1.894,2.227-2.921,3.148l-0.007,0.006   c-0.013,0.011-0.018,0.027-0.03,0.039L66.07,73.982c-0.016,0.002-0.036,0.005-0.052,0.008c-0.543,0.101-0.902,0.623-0.801,1.166   c0.101,0.543,0.623,0.902,1.166,0.801l2.055-0.382c-0.16,0.349-0.324,0.697-0.492,1.031c-0.155,0.315-0.337,0.613-0.514,0.91   l-3.802-0.648c-0.015-0.003-0.034-0.005-0.049-0.007c-0.549-0.066-1.046,0.326-1.112,0.875c-0.066,0.549,0.326,1.046,0.875,1.112   l2.913,0.348c-0.128,0.152-0.259,0.298-0.396,0.434c-0.209,0.236-0.432,0.444-0.651,0.656l-1.319-0.636   c-0.019-0.009-0.042-0.019-0.062-0.027c-0.513-0.206-1.095,0.043-1.302,0.555c-0.206,0.513,0.043,1.095,0.555,1.302l0.169,0.068   c-0.058,0.018-0.115,0.039-0.172,0.057l-0.16,0.051l-0.027,0.009l-0.061,0.01l-0.312,0.051l-0.624,0.104   c-0.416,0.065-0.832,0.07-1.247,0.111c-0.227-0.008-0.457-0.007-0.685-0.012c-0.227-0.109-0.482-0.131-0.726-0.055   c-0.344-0.038-0.684-0.09-1.012-0.185c-0.388-0.095-0.765-0.229-1.12-0.394c-0.36-0.159-0.698-0.356-1.013-0.58   c-0.313-0.228-0.601-0.486-0.853-0.77c-0.215-0.237-0.428-0.541-0.549-0.762l2.32-2.068c0.383-0.341,0.582-0.831,0.548-1.343   c-0.034-0.506-0.293-0.958-0.712-1.241c-0.828-0.56-1.882-0.897-3.133-1.002c-0.997-0.084-1.853,0.022-2.656,0.296   c-0.53,0.181-0.929,0.613-1.063,1.158c-0.136,0.546,0.013,1.117,0.398,1.526l2.331,2.478c-0.235,0.137-0.478,0.272-0.722,0.392   c-0.412,0.21-0.836,0.394-1.263,0.566c-0.43,0.164-0.863,0.313-1.302,0.432c-0.439,0.11-0.877,0.235-1.318,0.291   c-0.441,0.085-0.882,0.103-1.319,0.12l-0.652-0.017l-0.639-0.086c-0.151-0.012-0.278-0.047-0.403-0.082l0.416-0.149   c0.022-0.008,0.046-0.018,0.068-0.027c0.505-0.223,0.734-0.814,0.511-1.32c-0.223-0.506-0.814-0.734-1.32-0.511l-2.11,0.932   c-0.253-0.152-0.502-0.309-0.73-0.488c-0.368-0.26-0.705-0.553-1.018-0.864c-0.24-0.238-0.458-0.493-0.661-0.759l3.08-0.125   c0.017-0.001,0.038-0.002,0.055-0.004c0.55-0.053,0.953-0.541,0.9-1.091c-0.053-0.55-0.541-0.953-1.091-0.9l-3.912,0.376   c-0.274-0.703-0.472-1.445-0.61-2.232l-0.166-0.89l4.514,1.29c0.021,0.006,0.045,0.012,0.067,0.017   c0.541,0.115,1.072-0.231,1.186-0.771s-0.231-1.072-0.771-1.186l-5.397-1.144c-0.02-0.075-0.033-0.15-0.054-0.225   c-0.05-0.178-0.208-0.315-0.403-0.329c-0.227-0.017-0.42,0.141-0.468,0.358L22.41,67.426c-0.128-0.027-0.258,0.049-0.295,0.177   c-0.038,0.134,0.039,0.273,0.173,0.312l14.834,4.238l0.013,1.447c0.027,0.741,0.145,1.502,0.359,2.246l-17.199,1.651   c-0.191,0.019-0.337,0.183-0.329,0.377c0.008,0.201,0.177,0.357,0.378,0.349l17.818-0.72c0.122,0.234,0.254,0.464,0.403,0.682   c0.295,0.464,0.642,0.892,1.014,1.288c0.325,0.346,0.676,0.667,1.042,0.96l-12.936,5.716c-0.15,0.067-0.226,0.239-0.17,0.396   c0.059,0.165,0.24,0.251,0.405,0.192l14.391-5.138l0.465,0.268l0.021,0.012l0.084,0.041l0.042,0.019l0.084,0.038l0.169,0.076   l0.339,0.148c0.203,0.103,0.497,0.189,0.787,0.271c0.093,0.025,0.188,0.053,0.283,0.08c1.121,1.363,3.757,3.886,7.924,3.886   c0.001,0,0.002,0,0.003,0c2.443,0,4.948-0.914,7.451-2.704c0.245,0.005,0.489,0.005,0.733,0.012   c0.477-0.04,0.962-0.048,1.433-0.118l0.704-0.112l0.352-0.057l0.088-0.014l0.153-0.037l0.163-0.043   c0.217-0.058,0.434-0.114,0.654-0.161c0.238-0.077,0.512-0.187,0.77-0.283c0.275-0.095,0.508-0.216,0.729-0.347   c0.009-0.005,0.018-0.01,0.027-0.015l16.066,6.456c0.153,0.061,0.331-0.005,0.404-0.157c0.076-0.158,0.01-0.348-0.148-0.424   l-14.74-7.114c0.061-0.067,0.129-0.127,0.187-0.197c0.335-0.383,0.607-0.805,0.867-1.223c0.085-0.137,0.157-0.279,0.232-0.42   l12.339,1.473l0.011,0.05l0.167,0.77c0.219,1.043,0.43,2.12,0.722,3.211c0.317,1.084,0.642,2.225,1.464,3.294   c0.173,0.247,0.509,0.557,0.673,0.704l0.588,0.531l1.177,1.093c0.783,0.736,1.594,1.448,2.394,2.174   c0.4,0.364,0.812,0.715,1.229,1.066l0.633,0.525l0.335,0.26c0.115,0.082,0.229,0.177,0.456,0.3   c0.198,0.108,0.452,0.083,0.625-0.079c0.218-0.203,0.23-0.544,0.027-0.762l-0.151-0.162l-0.988-1.06l-1.084-1.188   c-0.734-0.786-1.449-1.593-2.199-2.37l-1.13-1.168l-0.581-0.583l-0.144-0.144l-0.093-0.108c-0.065-0.065-0.125-0.144-0.181-0.232   c-0.47-0.671-0.796-1.635-1.041-2.618c-0.244-0.995-0.428-2.038-0.628-3.107l-0.025-0.13l6.417,0.766   c0.178,0.021,0.343-0.101,0.374-0.279c0.031-0.184-0.093-0.359-0.277-0.391l-6.728-1.147l-0.008-0.036l-0.137-0.472   c-0.2-0.61-0.454-1.15-0.732-1.659c-0.559-1.016-1.18-1.947-1.858-2.829c-0.415-0.536-0.84-1.054-1.276-1.565l9.57-1.777   c0.211-0.04,0.358-0.238,0.33-0.454c-0.029-0.223-0.234-0.38-0.458-0.351l-8.474,1.118c0.445-0.49,0.875-0.991,1.29-1.514   c0.961-1.221,1.843-2.515,2.571-3.908c0.73-1.392,1.32-2.865,1.721-4.417c0.173-0.814,0.344-1.64,0.386-2.359l0.057-0.56   l0.024-0.632c0.013-0.386,0.026-0.773,0.019-1.158c0.004-3.087-0.372-6.137-0.958-9.133c-0.294-1.497-0.646-2.987-1.062-4.455   c-0.085-0.284-0.098-0.477-0.075-0.721c0.01-0.109,0.043-0.243,0.069-0.326l0.187-0.488l0.82-2.095   c0.254-0.706,0.581-1.344,0.808-2.248c0.225-0.851,0.196-1.78,0.192-2.474l-0.001-0.562c-0.001-0.139,0.01-0.263,0.031-0.394   c0.041-0.256,0.131-0.512,0.252-0.733l1.167-1.855l4.791-7.617c0.909-1.317,1.557-3.096,1.232-4.929   C93.412,19.107,93.285,18.691,93.034,18.219z M52.512,84.437c-2.071,0-3.663-0.791-4.802-1.654   c0.243-0.019,0.485-0.043,0.722-0.085c1.069-0.155,2.093-0.468,3.065-0.868c0.485-0.204,0.962-0.422,1.425-0.669   c0.191-0.099,0.373-0.203,0.556-0.308c0.117,0.137,0.237,0.271,0.366,0.407c0.362,0.37,0.762,0.695,1.188,0.976   c0.421,0.287,0.867,0.534,1.331,0.73c0.211,0.093,0.427,0.174,0.644,0.248c-1.302,0.679-2.851,1.221-4.493,1.222   C52.513,84.437,52.512,84.437,52.512,84.437z M80.602,79.762l-11.267-1.92c0.069-0.201,0.152-0.399,0.211-0.602   c0.133-0.457,0.26-0.912,0.33-1.381c0.031-0.19,0.058-0.378,0.083-0.566l6.754-1.254c0.637,0.771,1.282,1.582,1.873,2.402   c0.602,0.85,1.194,1.706,1.661,2.583C80.381,79.271,80.498,79.518,80.602,79.762z"/><circle cx="67.606" cy="58.803" r="2.537"/><circle cx="41.7" cy="55.5" r="2.537"/><path d="M62.654,62.971l0.026,0.025c0,0,0.021,0.02,0.062,0.06c0.02,0.02,0.046,0.044,0.076,0.073   c0.048,0.039,0.103,0.083,0.165,0.134c0.07,0.061,0.221,0.165,0.406,0.279c0.168,0.096,0.361,0.196,0.583,0.289   c0.889,0.37,2.184,0.568,3.681,0.469c0.759-0.052,1.629-0.183,2.511-0.615c0.12-0.061,0.196-0.099,0.349-0.193   c0.087-0.056,0.163-0.099,0.293-0.198c0.237-0.175,0.406-0.334,0.588-0.518c0.351-0.362,0.648-0.759,0.909-1.178   c0.262-0.42,0.488-0.862,0.681-1.335c0.174-0.451,0.332-0.895,0.471-1.387c0.136-0.49,0.255-1.01,0.27-1.618   c0.003-0.151-0.002-0.311-0.021-0.477c-0.018-0.155-0.039-0.34-0.151-0.616c-0.098-0.248-0.309-0.515-0.516-0.67   c-0.204-0.156-0.374-0.234-0.508-0.294c-0.927-0.395-1.867-0.717-2.873-0.909c-1.009-0.207-2.104-0.18-3.074,0.063   c-0.98,0.236-1.883,0.676-2.611,1.27c-0.182,0.148-0.356,0.302-0.513,0.468l-0.119,0.122c-0.095,0.1-0.079,0.092-0.124,0.144   c-0.064,0.082-0.114,0.131-0.191,0.244c-0.309,0.415-0.467,0.748-0.645,1.117c-0.635,1.434-0.767,2.798-0.516,3.797   c0.11,0.497,0.336,0.875,0.503,1.11C62.553,62.851,62.654,62.971,62.654,62.971z M63.832,58.421   c0.137-0.257,0.327-0.572,0.484-0.755c0.027-0.045,0.114-0.131,0.173-0.197c0.02-0.02,0.094-0.106,0.069-0.072l0.09-0.082   c0.117-0.112,0.249-0.214,0.384-0.312c0.544-0.392,1.214-0.69,1.95-0.829c0.744-0.141,1.501-0.129,2.299,0.036   c0.803,0.164,1.642,0.463,2.431,0.815c0.01,0.004,0.013,0.006,0.021,0.01c0.008,0.061,0.013,0.128,0.012,0.202   c0,0.326-0.072,0.724-0.178,1.121c-0.104,0.397-0.247,0.817-0.39,1.212c-0.131,0.37-0.296,0.734-0.484,1.068   c-0.187,0.335-0.398,0.642-0.624,0.897c-0.107,0.123-0.241,0.254-0.333,0.329c-0.029,0.032-0.127,0.099-0.209,0.158l-0.178,0.11   c-0.551,0.314-1.209,0.47-1.843,0.546c-1.301,0.16-2.38,0.035-3.019-0.193c-0.16-0.057-0.295-0.118-0.407-0.173   c-0.088-0.05-0.168-0.086-0.269-0.164l-0.063-0.044l-0.028-0.02c-0.019-0.016-0.039-0.034-0.054-0.046   c-0.03-0.026-0.036-0.031-0.046-0.039c-0.008-0.01-0.05-0.063-0.132-0.167c-0.073-0.128-0.184-0.317-0.233-0.628   C63.128,60.608,63.26,59.527,63.832,58.421z"/><path d="M36.765,51.229l-0.138,0.138c-0.128,0.14-0.234,0.328-0.289,0.508c-0.044,0.159-0.028,0.128-0.044,0.201   c-0.038,0.213-0.037,0.332-0.048,0.485c-0.01,0.278-0.008,0.532,0,0.783c0.015,0.501,0.047,0.983,0.086,1.463l0.067,0.721   c0.026,0.272,0.074,0.528,0.131,0.79c0.117,0.511,0.29,1.014,0.527,1.491c0.46,0.967,1.281,1.757,2.079,2.224   c0.804,0.48,1.599,0.782,2.376,0.968c1.545,0.38,2.936,0.223,3.844-0.083c0.458-0.145,0.798-0.324,1.024-0.45   c0.221-0.136,0.339-0.209,0.339-0.209l0.069-0.051c0,0,0.023-0.019,0.066-0.057c-0.004,0.017,0.239-0.23,0.319-0.38   c0.196-0.314,0.326-0.722,0.403-1.192c0.078-0.475,0.114-1.015,0.098-1.652c-0.021-0.645-0.149-1.409-0.443-2.166   c-0.278-0.757-0.803-1.56-1.426-2.191c-0.697-0.712-1.554-1.246-2.535-1.583c-1.973-0.663-4.116-0.44-6.051,0.037l-0.046,0.011   l-0.023,0.005l-0.012,0.003C37.457,50.886,36.688,51.265,36.765,51.229z M42.695,52.779c0.718,0.209,1.366,0.602,1.836,1.033   c0.546,0.511,0.901,1.015,1.15,1.587c0.246,0.566,0.365,1.105,0.407,1.616c0.038,0.521,0.026,0.996-0.017,1.344   c-0.039,0.354-0.123,0.576-0.159,0.643c0.049-0.038,0.012-0.003-0.023,0.03c-0.026,0.014-0.094,0.052-0.226,0.125   c-0.167,0.082-0.415,0.2-0.757,0.29c-0.67,0.191-1.741,0.276-2.965-0.085c-0.603-0.171-1.257-0.46-1.84-0.847   c-0.586-0.393-1.04-0.867-1.332-1.529c-0.148-0.328-0.258-0.693-0.334-1.079c-0.038-0.187-0.073-0.386-0.088-0.577l-0.054-0.672   c-0.031-0.454-0.055-0.914-0.063-1.361c-0.003-0.157,0.001-0.304,0.005-0.452C39.8,52.491,41.381,52.401,42.695,52.779z"/></g><text x="0" y="115" fill="#000000" font-size="5px" font-weight="bold" font-family="'Helvetica Neue', Helvetica, Arial-Unicode, Arial, Sans-serif">Created by Maxim Kulikov</text><text x="0" y="120" fill="#000000" font-size="5px" font-weight="bold" font-family="'Helvetica Neue', Helvetica, Arial-Unicode, Arial, Sans-serif">from the Noun Project</text></svg>