<svg xmlns="http://www.w3.org/2000/svg" xmlns:xlink="http://www.w3.org/1999/xlink" version="1.1" x="0px" y="0px" viewBox="0 0 100 125" style="enable-background:new 0 0 100 100;" xml:space="preserve"><style type="text/css">
	.st0{fill:#040000;}
</style><g><polygon class="st0" points="57.8,68.6 57,78 61.7,66.9 60.3,64.4  "/><path class="st0" d="M93.8,37.1c-19.1,11.6-28,13.8-32.1,13.7v0c0,0-12.9-12.9-31.8-14.5L23.4,22h0l-2.7-5.1L19,22.6l-4.6,0.7   l-4.9,4.2L5,28.7c0,0,0.2,5.3,0.7,5.5c0.5,0.2,4.9,3,4.9,3S11,46.8,15.4,56c3,3.8,9.1,11.5,9.1,11.5v15.4c0,0-1.2,1.7-1.1,3h5.4   c0.5-0.5,0.9-1.1,1.2-1.8c0.9-2.1,4.8-18.4,4.8-18.4L47.6,78c0,0-6.2,4.9-6.7,6.9c-0.1,0.4-0.1,0.8,0,1.1h1.3   c0.1-0.5,0.3-1.3,1.3-2.2c0,0-0.1,1.3-0.1,2.2h3.3c3.2-2.6,8-7.8,8-7.8L56.1,66l5.7-6.7v-3.9C72.1,55.9,95,39.2,95,39.2L93.8,37.1z    M12.3,28.2l2.3-2.1C14.6,26.1,15.1,28.8,12.3,28.2z"/></g><text x="0" y="115" fill="#000000" font-size="5px" font-weight="bold" font-family="'Helvetica Neue', Helvetica, Arial-Unicode, Arial, Sans-serif">Created by parkjisun</text><text x="0" y="120" fill="#000000" font-size="5px" font-weight="bold" font-family="'Helvetica Neue', Helvetica, Arial-Unicode, Arial, Sans-serif">from the Noun Project</text></svg>