<svg xmlns="http://www.w3.org/2000/svg" xmlns:xlink="http://www.w3.org/1999/xlink" xml:space="preserve" version="1.1" style="shape-rendering:geometricPrecision;text-rendering:geometricPrecision;image-rendering:optimizeQuality;" viewBox="0 0 847 1058.75" x="0px" y="0px" fill-rule="evenodd" clip-rule="evenodd"><defs><style type="text/css">
   
    .fil0 {fill:black}
   
  </style></defs><g><path class="fil0" d="M549 485l1 1c7,-4 12,-16 12,-29 0,-14 -5,-26 -12,-30l-1 1 0 -1c-7,4 -12,16 -12,30 0,13 5,25 12,29l0 -1zm0 -65c-18,0 -33,17 -33,37 0,19 15,36 33,36 19,0 34,-17 34,-36 0,-20 -15,-37 -34,-37zm-34 15c-7,13 -8,28 0,42 6,11 17,18 29,19 -21,6 -44,6 -69,-1 9,-22 21,-44 40,-60zm74 35c3,-11 3,-23 -4,-34 -7,-13 -20,-20 -34,-21 20,-6 43,-7 69,-3 -7,24 -17,43 -31,58zm-121 18c26,-79 89,-117 168,-96 7,2 10,8 8,14 -18,84 -85,124 -169,97 -6,-2 -9,-9 -7,-15zm-168 -3l0 1c7,-4 12,-16 12,-29 0,-14 -5,-26 -12,-30l0 1 -1 -1c-7,4 -12,16 -12,30 0,13 5,25 12,29l1 -1zm0 -65c18,0 33,17 33,37 0,19 -15,36 -33,36 -19,0 -34,-17 -34,-36 0,-20 15,-37 34,-37zm34 15c7,13 8,28 0,42 -6,11 -17,18 -29,19 20,6 44,6 69,-1 -9,-22 -21,-44 -40,-60zm-74 35c-3,-11 -3,-23 4,-34 7,-13 20,-20 34,-21 -20,-6 -43,-7 -69,-3 7,24 17,43 31,58zm121 18c-26,-79 -89,-117 -168,-96 -7,2 -10,8 -8,14 18,84 85,124 169,97 6,-2 8,-9 7,-15zm106 61c2,22 -14,47 -34,59 -3,2 -7,4 -10,5 7,10 18,13 29,14 29,0 55,-3 55,-3 30,0 6,18 -55,18 -18,0 -34,1 -45,-13l-1 -1 -2 1c-11,14 -27,13 -45,13 -61,0 -84,-18 -54,-18 0,0 25,3 54,3 11,-1 22,-4 29,-14 -3,-1 -7,-3 -10,-5 -20,-12 -36,-37 -34,-59 2,-18 17,-30 34,-36 -7,4 -14,10 -19,17 -4,4 -6,9 -6,13 0,5 3,10 12,14 2,0 5,1 7,2l0 0 0 0 0 0 1 0 0 0 0 0 0 0 1 1 0 0 0 0 0 0 1 0 0 0c5,1 10,3 16,3 4,1 7,4 7,8 1,1 1,2 1,3 1,25 4,37 7,36 2,1 5,-11 6,-36 0,-1 0,-2 1,-3 0,-4 3,-7 7,-8 5,0 10,-1 16,-3l0 0 0 0 0 0 1 0 0 0 0 0 0 0 1 -1 0 0 0 0 0 0 1 0 0 0 0 0 0 0 1 0 0 0 0 0 0 0 1 -1 0 0 0 0 0 0c2,0 3,-1 5,-2 9,-3 12,-8 12,-13 0,-4 -2,-9 -6,-13 -5,-8 -12,-13 -19,-17 17,6 33,17 34,36zm103 -297c12,-15 35,-40 64,-57 10,30 9,66 3,100 -21,-16 -43,-31 -67,-43zm88 348l69 11c2,0 4,3 4,5 -1,3 -3,5 -6,5l-75 -12c-8,11 -17,20 -27,29l1 1c19,10 36,19 53,27 3,2 4,6 3,9 -2,4 -6,5 -9,3 -17,-8 -35,-17 -54,-27 -2,-2 -4,-3 -6,-4 -2,2 -4,4 -6,5 -58,45 -132,70 -197,71 -2,0 -4,0 -5,0 -1,0 -2,0 -5,0 -64,-1 -138,-26 -196,-71 -2,-1 -5,-3 -7,-5 -2,1 -4,2 -6,4 -19,10 -36,19 -53,27 -3,2 -7,1 -9,-3 -2,-3 0,-7 3,-9 16,-8 34,-17 53,-27l1 -1c-10,-9 -19,-18 -27,-27l-66 10c-3,0 -5,-2 -6,-5 0,-2 2,-5 4,-5l61 -9c-7,-9 -14,-19 -20,-29 -6,0 -13,0 -19,0 -31,0 -56,-2 -82,-3 -4,-1 -7,-4 -7,-8 1,-3 4,-6 8,-6 26,2 51,3 82,3 3,0 7,0 11,0 -14,-28 -22,-59 -22,-94 0,0 0,-2 0,-4 0,-19 7,-63 17,-101 7,-26 15,-49 25,-61l-2 -10c-5,-27 -9,-56 -8,-84 1,-25 5,-49 13,-72 0,-1 1,-2 1,-4 1,-1 1,-2 2,-3l2 -3 4 1c2,0 4,0 5,1 3,1 5,2 6,3 20,10 38,23 56,36 18,15 36,32 52,49l7 8 11 -3c18,-5 36,-8 55,-11 19,-2 37,-3 56,-3 19,0 38,1 57,3 18,3 37,6 55,11l11 3 7 -8c16,-17 33,-34 52,-49 18,-13 36,-26 56,-36 1,-1 3,-2 5,-3 2,-1 4,-1 6,-1l3 -1 3 3c0,1 1,2 1,3 1,2 2,3 2,4 8,23 12,47 12,72 1,28 -2,57 -7,84l-2 10c9,12 18,35 25,61 10,38 16,82 17,101 0,2 0,4 0,4 0,35 -8,66 -22,94 4,0 7,0 11,0 31,0 55,-1 82,-3 4,0 7,3 7,6 1,4 -2,7 -6,8 -27,1 -51,3 -83,3 -6,0 -12,0 -19,0 -5,10 -11,19 -18,27zm-65 1c-3,-1 -5,-3 -4,-6 0,-3 3,-4 5,-4l48 7c7,-8 13,-16 18,-25 -23,0 -51,-1 -85,-2 -4,0 -7,-3 -7,-7 1,-4 4,-7 7,-6 38,1 68,1 93,1 15,-28 24,-59 24,-94 0,-2 0,-3 0,-4 0,-18 -7,-61 -17,-98 -6,-26 -15,-49 -23,-57l-3 -3 4 -16c5,-27 8,-54 7,-82 -1,-22 -4,-45 -12,-66 0,0 -1,0 -1,0 -19,11 -37,23 -53,36 -19,14 -35,30 -51,47l-13 14 -19 -5c-17,-4 -35,-8 -53,-10 -18,-3 -36,-4 -55,-4 -18,0 -36,1 -54,4 -18,2 -36,6 -54,10l-18 5 -13 -14c-16,-17 -33,-33 -51,-47 -17,-13 -35,-25 -53,-36 -1,0 -1,0 -2,0 -7,21 -10,44 -11,66 -1,28 2,55 7,82l3 16 -2 3c-9,8 -17,31 -24,57 -10,37 -16,80 -17,98 0,1 0,2 0,4 0,35 9,66 24,94 26,0 56,0 93,-1 4,-1 7,2 7,6 0,4 -3,7 -6,7 -34,1 -62,2 -86,2 6,9 12,18 19,26l57 -8c2,0 5,1 5,4 1,3 -1,5 -4,6l-50 7c8,8 15,16 24,23 15,-8 30,-17 47,-27 3,-2 7,-1 9,3 2,3 1,7 -2,9 -15,9 -29,17 -43,24 1,1 1,1 2,2 56,42 127,66 188,68 1,0 3,0 5,0 3,0 4,0 5,0 62,-2 133,-26 189,-68 0,-1 1,-1 2,-2 -14,-7 -28,-15 -43,-24 -3,-2 -4,-6 -2,-9 2,-4 6,-5 9,-3 17,10 32,19 47,27 9,-8 17,-16 24,-24l-41 -6zm-354 -349c-12,-15 -35,-40 -64,-57 -10,30 -9,66 -3,100 21,-16 43,-31 67,-43z"/></g><text x="0" y="862" fill="#000000" font-size="5px" font-weight="bold" font-family="'Helvetica Neue', Helvetica, Arial-Unicode, Arial, Sans-serif">Created by Fabrice VAN NEER</text><text x="0" y="867" fill="#000000" font-size="5px" font-weight="bold" font-family="'Helvetica Neue', Helvetica, Arial-Unicode, Arial, Sans-serif">from the Noun Project</text></svg>